# xmcd CD database file
#
# Track frame offsets:
#	150
#	10012
#	22800
#	33612
#	48462
#	58675
#	70450
#	83337
#	95300
#	108575
#	118712
#	129162
#	140100
#	149650
#	157662
#	168050
#	178825
#	193775
#
# Disc length: 2774 seconds
#
# Revision: 3
# Processed by: cddbd v1.5.1PL2 Copyright (c) Steve Scherf et al.
# Submitted via: CDex 1.51
#
DISCID=ef0ad412
DTITLE=Various Artist - Country Golder Greats 55 Favourites VOL 1.
DYEAR=1994
DGENRE=Country
TTITLE0=Ned Miller - From a Jack to a King
TTITLE1=Billie Jo Spears - What I've got in mind
TTITLE2=Hank Locklin - Send me the pillow
TTITLE3=Jeannie C. Riley - Harper Valley P.T.A.
TTITLE4=Roger Miller - King of the Road
TTITLE5=Patsy Cline - A poor man's roses
TTITLE6=Freddy Fender - Silver Wings
TTITLE7=Jack Greene - There goes my everything
TTITLE8=Lynn Anderson - Rose Garden
TTITLE9=Jim Reeves - He'll have to go
TTITLE10=Waylon Jennings - White Lightning
TTITLE11=Patsy Cline - I cried all the way to the altar
TTITLE12=Boxcar Willie - I'm movin' on
TTITLE13=Tammy Wynette - When the grass grows over me
TTITLE14=Johnny Russel - Jambalaya
TTITLE15=Billy Jo Spears - I'm so lonesome I could cry
TTITLE16=Don Gibson - Sweet Dreams
TTITLE17=Tammy Wynette - Crying in the rain
EXTD=18 Country Classics YEAR: 1994
EXTT0=
EXTT1=
EXTT2=
EXTT3=
EXTT4=
EXTT5=
EXTT6=
EXTT7=
EXTT8=
EXTT9=
EXTT10=
EXTT11=
EXTT12=
EXTT13=
EXTT14=
EXTT15=
EXTT16=
EXTT17=
PLAYORDER=
